Coordinates
version=1
nRows=32
nColumns=12
inDegrees=yes

Units are S.I. units (second, meters, Newtons, ...)
Angles are in degrees

endheader
time	SC_y	SC_z	SC_x	AC_y	AC_z	AC_x	GH_y	GH_z	GH_yy	EL_x	PS_y
       0.0              -23.78          21.89          53.64          38.36           -9.9          9.112          46.45          65.43          64.66          19.67          36.98
  0.004899              -23.78          21.89          53.63          38.36         -9.899          9.109          46.44          65.43          64.63          19.67          36.98
  0.009797              -23.78          21.89          53.63          38.36         -9.897          9.105          46.43          65.44           64.6          19.67          36.99
    0.0147              -23.79          21.89          53.63          38.36         -9.895          9.102          46.42          65.44          64.56          19.67           37.0
   0.01959              -23.79          21.89          53.62          38.36         -9.893          9.098          46.41          65.44          64.52          19.67          37.01
   0.02449               -23.8           21.9          53.62          38.36         -9.891          9.094           46.4          65.45          64.48          19.68          37.02
   0.02939               -23.8           21.9          53.62          38.36         -9.889           9.09          46.39          65.45          64.43          19.68          37.03
   0.03429              -23.81           21.9          53.61          38.36         -9.886          9.085          46.38          65.45          64.38          19.68          37.04
   0.03919              -23.81           21.9          53.61          38.36         -9.884          9.081          46.36          65.46          64.33          19.68          37.06
   0.04409              -23.82           21.9           53.6          38.36         -9.881          9.075          46.35          65.46          64.28          19.68          37.07
   0.04899              -23.82           21.9           53.6          38.35         -9.878           9.07          46.33          65.47          64.22          19.68          37.08
   0.05388              -23.83          21.91          53.59          38.35         -9.874          9.064          46.31          65.47          64.15          19.68           37.1
   0.05878              -23.84          21.91          53.59          38.35         -9.871          9.057           46.3          65.48          64.08          19.68          37.12
   0.06368              -23.85          21.91          53.58          38.35         -9.867          9.051          46.28          65.49          64.01          19.68          37.13
   0.06858              -23.86          21.91          53.58          38.35         -9.863          9.043          46.25          65.49          63.93          19.68          37.15
   0.07348              -23.87          21.92          53.57          38.35         -9.859          9.035          46.23           65.5          63.84          19.68          37.17
   0.07838              -23.88          21.92          53.56          38.35         -9.854          9.026           46.2          65.51          63.74          19.68           37.2
   0.08327              -23.89          21.92          53.55          38.34         -9.849          9.016          46.18          65.52          63.64          19.69          37.22
   0.08817               -23.9          21.93          53.54          38.34         -9.843          9.006          46.15          65.53          63.53          19.69          37.25
   0.09307              -23.91          21.93          53.53          38.34         -9.837          8.994          46.11          65.54           63.4          19.69          37.28
   0.09797              -23.93          21.94          53.52          38.34          -9.83          8.981          46.08          65.55          63.27          19.69          37.31
    0.1029              -23.94          21.94          53.51          38.33         -9.822          8.967          46.04          65.56          63.12          19.69          37.34
    0.1078              -23.96          21.95           53.5          38.33         -9.814          8.952          45.99          65.58          62.95          19.69          37.38
    0.1127              -23.98          21.95          53.48          38.33         -9.805          8.935          45.94           65.6          62.77           19.7          37.43
    0.1176               -24.0          21.96          53.46          38.32         -9.795          8.916          45.89          65.61          62.56           19.7          37.48
    0.1225              -24.03          21.97          53.45          38.32         -9.783          8.895          45.83          65.63          62.34           19.7          37.53
    0.1274              -24.06          21.97          53.42          38.31          -9.77          8.871          45.76          65.66          62.08           19.7          37.59
    0.1323              -24.09          21.98           53.4          38.31         -9.756          8.844          45.68          65.68          61.79          19.71          37.66
    0.1372              -24.12          21.99          53.37           38.3          -9.74          8.814           45.6          65.71          61.47          19.71          37.74
    0.1421              -24.16          22.01          53.34          38.29         -9.721          8.779           45.5          65.74           61.1          19.72          37.82
     0.147              -24.21          22.02          53.31          38.28           -9.7           8.74          45.38          65.78          60.68          19.72          37.92
    0.1519              -24.26          22.03          53.27          38.27         -9.676          8.695          45.25          65.82           60.2          19.73          38.04
